<svg width="20" height="21" viewBox="0 0 20 21" fill="none" xmlns="http://www.w3.org/2000/svg">
<path fill-rule="evenodd" clip-rule="evenodd" d="M9.76957 2.00752C9.9219 1.97894 10.0782 1.97894 10.2306 2.00752C10.3783 2.03524 10.5321 2.10457 11.0957 2.38638L18.6646 6.17084C19.0351 6.35608 19.4856 6.20591 19.6708 5.83543C19.8561 5.46494 19.7059 5.01444 19.3354 4.8292L11.7666 1.04474L11.6882 1.00554C11.2403 0.781159 10.8879 0.604676 10.5072 0.533243C10.172 0.470365 9.82811 0.470364 9.49297 0.533241C9.11223 0.604672 8.75987 0.781154 8.31188 1.00554L8.23357 1.04473L0.664603 4.8292C0.294119 5.01444 0.143949 5.46494 0.329191 5.83542C0.514432 6.20591 0.964936 6.35608 1.33542 6.17084L8.90439 2.38638C9.468 2.10457 9.62182 2.03524 9.76957 2.00752ZM9.76957 6.00752C9.9219 5.97894 10.0782 5.97894 10.2306 6.00752C10.3783 6.03524 10.5321 6.10457 11.0957 6.38638L16.1241 8.90059C17.0203 9.3487 17.324 9.50914 17.547 9.72031C17.8308 9.98904 18.0397 10.3271 18.1532 10.7011C18.2423 10.995 18.25 11.3384 18.25 12.3404V13.75C18.25 14.9476 18.2464 15.4369 18.1684 15.8292C17.833 17.5151 16.5151 18.833 14.8292 19.1684C14.4966 19.2345 14.0944 19.2472 13.25 19.2495V16C13.25 14.2051 11.795 12.75 10 12.75C8.2051 12.75 6.75003 14.2051 6.75003 16V19.2495C5.90569 19.2472 5.50345 19.2345 5.17091 19.1684C3.48496 18.833 2.16703 17.5151 1.83168 15.8291C1.75365 15.4369 1.75002 14.9476 1.75002 13.75L1.75001 12.3404C1.75001 11.3384 1.75772 10.995 1.84686 10.7011C1.96029 10.3271 2.16921 9.98905 2.45303 9.72031C2.67605 9.50914 2.9797 9.3487 3.87592 8.9006L8.90439 6.38638C9.468 6.10457 9.62182 6.03524 9.76957 6.00752ZM12.7459 20.7501L12.75 20.75L12.8511 20.75H12.8511C13.9164 20.7501 14.5655 20.7502 15.1218 20.6395C17.4028 20.1858 19.1858 18.4028 19.6395 16.1218C19.7502 15.5655 19.7501 14.9164 19.75 13.8511L19.75 13.75V12.3404L19.75 12.2269C19.7504 11.3825 19.7506 10.7998 19.5886 10.2658C19.3996 9.64238 19.0514 9.079 18.5783 8.63111C18.1731 8.24743 17.6518 7.987 16.8965 7.60969L16.7949 7.55895L11.7666 5.04474L11.6882 5.00554L11.6882 5.00554C11.2403 4.78116 10.8879 4.60467 10.5072 4.53324C10.172 4.47037 9.82811 4.47036 9.49297 4.53324C9.11223 4.60467 8.75987 4.78115 8.31188 5.00554L8.23357 5.04473L3.2051 7.55895L3.10356 7.60969L3.10356 7.60969C2.34824 7.987 1.82691 8.24743 1.42171 8.6311C0.948676 9.07899 0.60048 9.64239 0.411418 10.2658C0.249465 10.7998 0.249678 11.3826 0.249987 12.2269L0.250015 12.3404L0.250017 13.75L0.25001 13.8511C0.249906 14.9163 0.249842 15.5654 0.360501 16.1218C0.814214 18.4028 2.5973 20.1858 4.87829 20.6395C5.4346 20.7502 6.08369 20.7501 7.14893 20.75H7.149L7.25003 20.75L7.25415 20.7501C7.27785 20.7504 7.38364 20.752 7.48536 20.7317C7.86222 20.6568 8.15681 20.3622 8.23177 19.9853C8.25201 19.8836 8.25043 19.7778 8.25008 19.7541L8.25003 19.75V16C8.25003 15.0335 9.03353 14.25 10 14.25C10.9665 14.25 11.75 15.0335 11.75 16V19.75L11.75 19.7541C11.7496 19.7779 11.748 19.8836 11.7683 19.9854C11.8432 20.3622 12.1378 20.6568 12.5147 20.7318C12.6164 20.752 12.7222 20.7504 12.7459 20.7501Z" fill="#828282"/>
</svg>
