<svg width="20" height="22" viewBox="0 0 20 22" fill="none" xmlns="http://www.w3.org/2000/svg">
<path fill-rule="evenodd" clip-rule="evenodd" d="M9.76954 2.00752C9.92187 1.97894 10.0782 1.97894 10.2305 2.00752C10.3783 2.03524 10.5321 2.10457 11.0957 2.38638L18.6646 6.17084C19.0351 6.35608 19.4856 6.20591 19.6708 5.83543C19.8561 5.46494 19.7059 5.01444 19.3354 4.8292L11.7665 1.04474L11.6882 1.00554C11.2402 0.781159 10.8879 0.604676 10.5071 0.533243C10.172 0.470365 9.82808 0.470364 9.49294 0.533241C9.1122 0.604672 8.75984 0.781154 8.31185 1.00554L8.23354 1.04473L0.664573 4.8292C0.294088 5.01444 0.143919 5.46494 0.32916 5.83542C0.514401 6.20591 0.964905 6.35608 1.33539 6.17084L8.90436 2.38638C9.46797 2.10457 9.62179 2.03524 9.76954 2.00752ZM12.75 21.75L12.7459 21.7501C12.7222 21.7504 12.6164 21.752 12.5147 21.7318C12.1378 21.6568 11.8433 21.3622 11.7683 20.9854C11.7481 20.8836 11.7496 20.7779 11.75 20.7541L11.75 20.75V16.5667C11.75 15.6002 10.9665 14.8167 10 14.8167C9.03355 14.8167 8.25004 15.6002 8.25004 16.5667V20.75L8.25009 20.7541C8.25045 20.7778 8.25202 20.8836 8.23179 20.9853C8.15683 21.3622 7.86224 21.6568 7.48538 21.7317C7.38365 21.752 7.27787 21.7504 7.25417 21.75L7.25005 21.75L7.14902 21.75C6.08374 21.7501 5.43464 21.7502 4.87831 21.6395C2.59732 21.1858 0.814234 19.4028 0.360521 17.1218C0.249863 16.5654 0.249926 15.9163 0.250031 14.8511L0.250037 14.75L0.250035 12.68L0.250002 12.5558C0.24963 11.629 0.249372 10.9886 0.445449 10.4053C0.6183 9.89102 0.900681 9.42039 1.2731 9.02586C1.69556 8.57833 2.26072 8.27721 3.07861 7.84143L3.18828 7.78297L8.14126 5.1414L8.22368 5.09739L8.22369 5.09738C8.69341 4.84643 9.06272 4.64912 9.46457 4.56934C9.81813 4.49915 10.182 4.49915 10.5356 4.56934C10.9374 4.64912 11.3068 4.84644 11.7765 5.0974L11.8589 5.14141L16.8118 7.78297L16.9215 7.84142C17.7394 8.27721 18.3045 8.57833 18.727 9.02586C19.0994 9.42038 19.3818 9.89102 19.5546 10.4053C19.7507 10.9886 19.7504 11.629 19.7501 12.5557L19.75 12.68V14.75L19.75 14.8511C19.7501 15.9164 19.7502 16.5655 19.6395 17.1218C19.1858 19.4028 17.4028 21.1858 15.1218 21.6395C14.5655 21.7502 13.9164 21.7501 12.8511 21.75L12.75 21.75Z" fill="#0DA75E"/>
</svg>
