<svg width="24" height="24" viewBox="0 0 24 24" fill="none" xmlns="http://www.w3.org/2000/svg">
<path fill-rule="evenodd" clip-rule="evenodd" d="M10.8347 1.86654C11.5732 1.52105 12.4269 1.52105 13.1654 1.86654C13.6748 2.10488 14.0396 2.55347 14.3642 3.06215C14.6896 3.57205 15.0472 4.26427 15.4916 5.12462L15.5095 5.15916L15.9008 5.91668C16.0892 6.28142 16.1201 6.32545 16.1475 6.35401C16.1874 6.39565 16.235 6.42922 16.2876 6.4529C16.3236 6.46914 16.3755 6.48353 16.7823 6.53898L17.0246 6.572L17.0636 6.57732C18.1524 6.72572 19.021 6.84411 19.6759 6.99411C20.3203 7.14172 20.9194 7.35117 21.3274 7.79293C21.9096 8.42344 22.164 9.2896 22.0154 10.1348C21.9112 10.727 21.5206 11.2273 21.0584 11.7C20.5888 12.1803 19.9222 12.7498 19.0867 13.4635L19.0568 13.4891L18.9781 13.5563C18.5897 13.8881 18.5454 13.94 18.5221 13.9812C18.4876 14.0417 18.4677 14.1095 18.4639 14.1791C18.4613 14.2263 18.4705 14.2939 18.6177 14.7831L18.7587 15.2514L18.7701 15.2892C19.1152 16.4356 19.3889 17.3451 19.5353 18.0516C19.678 18.7401 19.7432 19.4127 19.4885 19.9856C19.129 20.7945 18.402 21.3808 17.5354 21.561C16.9215 21.6886 16.2779 21.4825 15.6352 21.1973C14.9758 20.9047 14.1448 20.4446 13.0974 19.8646L13.0629 19.8455L12.5668 19.5708C12.1849 19.3594 12.1313 19.3389 12.0904 19.3306C12.0308 19.3183 11.9693 19.3183 11.9096 19.3306C11.8688 19.3389 11.8152 19.3594 11.4333 19.5708L10.9371 19.8455L10.9026 19.8647C9.85527 20.4446 9.02433 20.9047 8.36485 21.1973C7.72216 21.4825 7.07858 21.6886 6.46474 21.561C5.59807 21.3808 4.87112 20.7945 4.51156 19.9856C4.25689 19.4127 4.32207 18.7401 4.46476 18.0516C4.61116 17.3451 4.88493 16.4356 5.23001 15.2892L5.24138 15.2514L5.38234 14.7831C5.52961 14.2939 5.53875 14.2263 5.53618 14.1791C5.53238 14.1095 5.51248 14.0417 5.47804 13.9812C5.45465 13.94 5.41042 13.8881 5.02196 13.5563L4.94333 13.4891L4.91338 13.4635C4.07787 12.7498 3.4113 12.1803 2.94164 11.7C2.47946 11.2273 2.08885 10.727 1.98471 10.1348C1.83607 9.2896 2.09054 8.42344 2.67274 7.79293C3.08065 7.35117 3.67977 7.14172 4.3242 6.99411C4.97905 6.84411 5.8477 6.72572 6.93651 6.57732L6.97554 6.572L7.21784 6.53898C7.62461 6.48353 7.67645 6.46914 7.71252 6.4529C7.76513 6.42922 7.81268 6.39565 7.85261 6.35401C7.87999 6.32545 7.9109 6.28142 8.09932 5.91668L8.49064 5.15916L8.50847 5.12463C8.9529 4.26428 9.31048 3.57205 9.63589 3.06215C9.9605 2.55347 10.3253 2.10488 10.8347 1.86654ZM12.5297 3.2252C12.1941 3.06816 11.806 3.06816 11.4703 3.2252C11.363 3.27544 11.1895 3.41596 10.9003 3.86908C10.6163 4.31416 10.2897 4.94469 9.82332 5.8476L9.43201 6.60511C9.42152 6.62541 9.41109 6.64568 9.40068 6.66592C9.26524 6.92915 9.13321 7.18576 8.93533 7.39213C8.76233 7.57257 8.55624 7.71806 8.3283 7.82068C8.06759 7.93805 7.7816 7.97656 7.48821 8.01607C7.46565 8.01911 7.44306 8.02215 7.42042 8.02523L7.17812 8.05826C6.04144 8.21319 5.24019 8.32315 4.6591 8.45624C4.0598 8.59352 3.85427 8.72444 3.77478 8.81053C3.51014 9.09712 3.39447 9.49083 3.46204 9.87503C3.48233 9.99043 3.58438 10.2117 4.0142 10.6513C4.43094 11.0776 5.04539 11.6035 5.91763 12.3486L5.99627 12.4158C6.01805 12.4344 6.03984 12.4529 6.06158 12.4714C6.34007 12.7084 6.61096 12.9389 6.78203 13.2398C6.93127 13.5023 7.01751 13.7959 7.03395 14.0974C7.0528 14.443 6.94961 14.7834 6.84353 15.1333C6.83525 15.1606 6.82695 15.188 6.81869 15.2154L6.67772 15.6838C6.31875 16.8763 6.06488 17.7222 5.93355 18.356C5.79689 19.0154 5.83545 19.2711 5.88224 19.3763C6.04568 19.744 6.37611 20.0105 6.77005 20.0924C6.88282 20.1159 7.14087 20.0994 7.75644 19.8263C8.348 19.5638 9.12097 19.1366 10.2105 18.5333L10.7067 18.2586C10.728 18.2468 10.7492 18.235 10.7704 18.2232C11.045 18.0705 11.3125 17.9218 11.6083 17.8612C11.8668 17.8081 12.1333 17.8081 12.3918 17.8612C12.6876 17.9218 12.9551 18.0705 13.2297 18.2232C13.2509 18.235 13.2721 18.2468 13.2934 18.2586L13.7896 18.5333C14.8791 19.1366 15.6521 19.5638 16.2437 19.8263C16.8592 20.0994 17.1173 20.1159 17.23 20.0924C17.624 20.0105 17.9544 19.744 18.1179 19.3763C18.1646 19.2711 18.2032 19.0154 18.0665 18.356C17.9352 17.7222 17.6813 16.8763 17.3224 15.6838L17.1814 15.2154C17.1731 15.188 17.1648 15.1606 17.1566 15.1333C17.0505 14.7834 16.9473 14.443 16.9661 14.0974C16.9826 13.7959 17.0688 13.5023 17.2181 13.2398C17.3891 12.9389 17.66 12.7084 17.9385 12.4714C17.9602 12.4529 17.982 12.4344 18.0038 12.4158L18.0825 12.3486C18.9547 11.6035 19.5691 11.0776 19.9859 10.6513C20.4157 10.2117 20.5178 9.99043 20.5381 9.87503C20.6056 9.49083 20.4899 9.09712 20.2253 8.81053C20.1458 8.72444 19.9403 8.59352 19.341 8.45624C18.7599 8.32315 17.9587 8.21319 16.822 8.05826L16.5797 8.02523C16.557 8.02215 16.5344 8.01911 16.5119 8.01607C16.2185 7.97656 15.9325 7.93805 15.6718 7.82068C15.4438 7.71806 15.2378 7.57257 15.0648 7.39213C14.8669 7.18576 14.7349 6.92915 14.5994 6.66592C14.589 6.64568 14.5786 6.62541 14.5681 6.60511L14.1768 5.8476C13.7103 4.94469 13.3838 4.31416 13.0997 3.86908C12.8106 3.41596 12.6371 3.27544 12.5297 3.2252Z" fill="#333333"/>
</svg>
